<?xml version="1.0" encoding="UTF-8" standalone="no"?>
<!DOCTYPE svg PUBLIC "-//W3C//DTD SVG 1.1//EN"
 "http://www.w3.org/Graphics/SVG/1.1/DTD/svg11.dtd">
<!-- Generated by graphviz version 2.43.0 (0)
 -->
<!-- Title: %3 Pages: 1 -->
<svg width="215pt" height="219pt"
 viewBox="0.00 0.00 214.50 219.00" xmlns="http://www.w3.org/2000/svg" xmlns:xlink="http://www.w3.org/1999/xlink">
<g id="graph0" class="graph" transform="scale(1 1) rotate(0) translate(4 215)">
<title>%3</title>
<polygon fill="white" stroke="transparent" points="-4,4 -4,-215 210.5,-215 210.5,4 -4,4"/>
<!-- @DEFAULT -->
<g id="node1" class="node">
<title>@DEFAULT</title>
<polygon fill="none" stroke="black" points="98,-211 0,-211 0,-175 98,-175 98,-211"/>
<text text-anchor="middle" x="49" y="-189.3" font-family="Times,serif" font-size="14.00">@DEFAULT</text>
</g>
<!-- @INIT_MD -->
<g id="node2" class="node">
<title>@INIT_MD</title>
<polygon fill="none" stroke="black" points="95.5,-127.5 2.5,-127.5 2.5,-91.5 95.5,-91.5 95.5,-127.5"/>
<text text-anchor="middle" x="49" y="-105.8" font-family="Times,serif" font-size="14.00">@INIT_MD</text>
</g>
<!-- @DEFAULT&#45;&gt;@INIT_MD -->
<g id="edge1" class="edge">
<title>@DEFAULT&#45;&gt;@INIT_MD</title>
<path fill="none" stroke="black" d="M49,-174.72C49,-164.02 49,-150.05 49,-137.87"/>
<polygon fill="black" stroke="black" points="52.5,-137.76 49,-127.76 45.5,-137.76 52.5,-137.76"/>
</g>
<!-- @INIT_MD_ -->
<g id="node3" class="node">
<title>@INIT_MD_</title>
<polygon fill="none" stroke="black" points="95.5,-44 2.5,-44 2.5,0 95.5,0 95.5,-44"/>
<text text-anchor="middle" x="49" y="-25.8" font-family="Times,serif" font-size="14.00">@COORDS</text>
<text text-anchor="middle" x="49" y="-10.8" font-family="Times,serif" font-size="14.00">@FORCES</text>
</g>
<!-- @INIT_MD&#45;&gt;@INIT_MD_ -->
<g id="edge3" class="edge">
<title>@INIT_MD&#45;&gt;@INIT_MD_</title>
<path fill="none" stroke="black" d="M49,-91.2C49,-80.6 49,-66.72 49,-54.25"/>
<polygon fill="black" stroke="black" points="52.5,-54.21 49,-44.21 45.5,-54.21 52.5,-54.21"/>
</g>
<!-- @_ -->
<g id="node4" class="node">
<title>@_</title>
<polygon fill="none" stroke="black" points="206.5,-139 113.5,-139 113.5,-80 206.5,-80 206.5,-139"/>
<text text-anchor="middle" x="160" y="-120.8" font-family="Times,serif" font-size="14.00">@INIT_MD</text>
<text text-anchor="middle" x="160" y="-105.8" font-family="Times,serif" font-size="14.00">@COORDS</text>
<text text-anchor="middle" x="160" y="-90.8" font-family="Times,serif" font-size="14.00">@FORCES</text>
</g>
<!-- @ -->
<g id="node5" class="node">
<title>@</title>
<ellipse fill="none" stroke="black" cx="160" cy="-193" rx="27" ry="18"/>
<text text-anchor="middle" x="160" y="-189.3" font-family="Times,serif" font-size="14.00">@</text>
</g>
<!-- @&#45;&gt;@_ -->
<g id="edge2" class="edge">
<title>@&#45;&gt;@_</title>
<path fill="none" stroke="black" d="M160,-174.72C160,-167.33 160,-158.38 160,-149.54"/>
<polygon fill="black" stroke="black" points="163.5,-149.31 160,-139.31 156.5,-149.31 163.5,-149.31"/>
</g>
</g>
</svg>
